<svg width="58" height="40" viewBox="0 0 58 40" fill="none" xmlns="http://www.w3.org/2000/svg">
<rect x="0.5" y="0.5" width="57" height="39" rx="5.5" fill="white"/>
<rect x="0.5" y="0.5" width="57" height="39" rx="5.5" stroke="#F9F7F6"/>
<path fill-rule="evenodd" clip-rule="evenodd" d="M16.0076 13.9053C15.5153 14.4918 14.7277 14.9544 13.9402 14.8883C13.8417 14.0953 14.2273 13.2527 14.6785 12.7323C15.1708 12.1293 16.0322 11.6997 16.7295 11.6667C16.8116 12.4927 16.4916 13.3023 16.0076 13.9053ZM16.7213 15.0452C16.0274 15.005 15.3943 15.2553 14.8829 15.4575C14.5538 15.5876 14.2752 15.6978 14.0632 15.6978C13.8252 15.6978 13.5351 15.5817 13.2092 15.4514C12.7823 15.2806 12.2943 15.0854 11.7824 15.0948C10.6092 15.1113 9.51811 15.7804 8.91922 16.846C7.68861 18.9772 8.59926 22.1327 9.78884 23.8674C10.3713 24.7265 11.0687 25.6682 11.9875 25.6352C12.3918 25.6198 12.6826 25.4956 12.9835 25.367C13.33 25.219 13.6899 25.0652 14.2518 25.0652C14.7943 25.0652 15.1385 25.215 15.4689 25.3587C15.783 25.4954 16.0847 25.6267 16.5326 25.6186C17.4842 25.6021 18.0831 24.7596 18.6656 23.9005C19.2942 22.9784 19.5704 22.0786 19.6124 21.942L19.6173 21.9262C19.6163 21.9252 19.6085 21.9216 19.5948 21.9153C19.3847 21.8184 17.7786 21.0781 17.7632 19.0929C17.7477 17.4265 19.0371 16.5823 19.2401 16.4494C19.2524 16.4413 19.2608 16.4358 19.2645 16.433C18.4441 15.2104 17.1643 15.0783 16.7213 15.0452ZM23.3092 25.5278V12.6497H28.1086C30.5862 12.6497 32.3172 14.3679 32.3172 16.879C32.3172 19.3902 30.5534 21.1249 28.0429 21.1249H25.2946V25.5278H23.3092ZM25.2944 14.3348H27.5833C29.3062 14.3348 30.2907 15.26 30.2907 16.8873C30.2907 18.5146 29.3062 19.4481 27.5751 19.4481H25.2944V14.3348ZM38.8724 23.9831C38.3473 24.9909 37.1905 25.6269 35.9435 25.6269C34.0976 25.6269 32.8096 24.52 32.8096 22.8514C32.8096 21.1993 34.0566 20.2493 36.3619 20.1089L38.8395 19.9602V19.2498C38.8395 18.2007 38.1586 17.6308 36.9444 17.6308C35.9435 17.6308 35.2133 18.1512 35.0657 18.9442H33.2772C33.3346 17.2756 34.8934 16.0613 37.0018 16.0613C39.2744 16.0613 40.7511 17.259 40.7511 19.1176V25.5278H38.9134V23.9831H38.8724ZM36.4766 24.0987C35.4183 24.0987 34.7456 23.5866 34.7456 22.8018C34.7456 21.9923 35.3937 21.5214 36.6325 21.4471L38.8394 21.3067V22.0336C38.8394 23.2396 37.8221 24.0987 36.4766 24.0987ZM46.8466 26.0317C46.0508 28.2868 45.1402 29.0303 43.204 29.0303C43.0563 29.0303 42.5641 29.0137 42.4492 28.9807V27.436C42.5723 27.4525 42.8758 27.469 43.0317 27.469C43.9096 27.469 44.4018 27.0973 44.7053 26.1308L44.8858 25.5608L41.5222 16.1852H43.5978L45.936 23.7931H45.977L48.3151 16.1852H50.3333L46.8466 26.0317Z" fill="black"/>
</svg>
