<svg width="56" height="40" viewBox="0 0 56 40" fill="none" xmlns="http://www.w3.org/2000/svg">
<rect x="0.816298" y="0.816298" width="53.8757" height="37.5497" rx="5.71409" fill="white"/>
<rect x="0.816298" y="0.816298" width="53.8757" height="37.5497" rx="5.71409" stroke="#F9F7F6" stroke-width="1.6326"/>
<path fill-rule="evenodd" clip-rule="evenodd" d="M26.216 25.3507V20.5596H28.6888C29.702 20.5596 30.5573 20.2201 31.2545 19.5505L31.4218 19.3807C32.6954 17.9943 32.6117 15.8346 31.2545 14.5519C30.5759 13.8728 29.6463 13.505 28.6888 13.5239H24.7193V25.3507H26.216ZM26.2161 19.1069V14.976H28.7265C29.2658 14.976 29.7771 15.1835 30.1583 15.5607C30.9672 16.3529 30.9858 17.6733 30.2048 18.4938C29.8236 18.8994 29.2844 19.1257 28.7265 19.1069H26.2161ZM38.4033 17.8904C37.7619 17.2962 36.8881 16.9944 35.7818 16.9944C34.3595 16.9944 33.2905 17.5225 32.5839 18.5694L33.904 19.4088C34.3874 18.692 35.0474 18.3336 35.8841 18.3336C36.414 18.3336 36.9252 18.5317 37.325 18.8901C37.7154 19.2296 37.9385 19.72 37.9385 20.2388V20.5877C37.3622 20.2671 36.6371 20.0973 35.7446 20.0973C34.7035 20.0973 33.8668 20.3425 33.244 20.8424C32.6211 21.3422 32.3051 22.0024 32.3051 22.8418C32.2865 23.6057 32.6118 24.3319 33.1882 24.8224C33.7739 25.3505 34.5175 25.6146 35.3914 25.6146C36.4233 25.6146 37.2413 25.1525 37.8642 24.2282H37.9292V25.3505H39.3608V20.3614C39.3608 19.3145 39.0448 18.4845 38.4033 17.8904ZM34.3412 23.8604C34.0344 23.634 33.8485 23.2662 33.8485 22.8701C33.8485 22.4268 34.053 22.059 34.4528 21.7666C34.8619 21.4742 35.3733 21.3233 35.9776 21.3233C36.8144 21.3139 37.4652 21.5025 37.9301 21.8798C37.9301 22.5211 37.6791 23.0776 37.1863 23.5491C36.74 24.0018 36.1357 24.2565 35.5034 24.2565C35.085 24.2659 34.676 24.1244 34.3412 23.8604ZM42.5772 28.9063L47.5785 17.2587H45.9517L43.637 23.0683H43.6091L41.2386 17.2587H39.6117L42.8933 24.832L41.034 28.9063H42.5772Z" fill="#3C4043"/>
<path d="M21.0491 19.5225C21.0491 19.0603 21.0119 18.5982 20.9375 18.1455H14.6254V20.758H18.2416C18.0929 21.5974 17.6095 22.3519 16.903 22.8234V24.5211H19.0597C20.324 23.3422 21.0491 21.5974 21.0491 19.5225Z" fill="#4285F4"/>
<path d="M14.6257 26.1619C16.4291 26.1619 17.9537 25.5583 19.0599 24.5208L16.9032 22.8232C16.299 23.2382 15.5274 23.4739 14.6257 23.4739C12.878 23.4739 11.3999 22.2762 10.87 20.6729H8.64825V22.4271C9.78238 24.7189 12.0971 26.1619 14.6257 26.1619Z" fill="#34A853"/>
<path d="M10.8702 20.673C10.5913 19.8336 10.5913 18.9188 10.8702 18.07V16.3252H8.64805C7.6904 18.2397 7.6904 20.5033 8.64805 22.4178L10.8702 20.673Z" fill="#FBBC04"/>
<path d="M14.6257 15.2689C15.5832 15.25 16.5035 15.6179 17.1914 16.2875L19.1064 14.3446C17.8886 13.194 16.2897 12.5621 14.6257 12.581C12.0971 12.581 9.78238 14.0334 8.64825 16.3252L10.87 18.0794C11.3999 16.4667 12.878 15.2689 14.6257 15.2689Z" fill="#EA4335"/>
</svg>
