<svg width="56" height="40" viewBox="0 0 56 40" fill="none" xmlns="http://www.w3.org/2000/svg">
<rect x="0.816298" y="0.816298" width="53.8757" height="37.5497" rx="5.71409" fill="white"/>
<rect x="0.816298" y="0.816298" width="53.8757" height="37.5497" rx="5.71409" stroke="#F9F7F6" stroke-width="1.6326"/>
<path fill-rule="evenodd" clip-rule="evenodd" d="M28.0464 27.4757C26.1133 29.1051 23.6058 30.0887 20.8657 30.0887C14.7519 30.0887 9.79559 25.1914 9.79559 19.1503C9.79559 13.1092 14.7519 8.21191 20.8657 8.21191C23.6058 8.21191 26.1134 9.19559 28.0465 10.8251C29.9796 9.19565 32.4871 8.21201 35.2271 8.21201C41.341 8.21201 46.2973 13.1093 46.2973 19.1504C46.2973 25.1915 41.341 30.0888 35.2271 30.0888C32.487 30.0888 29.9795 29.1051 28.0464 27.4757Z" fill="#ED0006"/>
<path fill-rule="evenodd" clip-rule="evenodd" d="M28.0464 27.4757C30.4266 25.4694 31.9359 22.484 31.9359 19.1503C31.9359 15.8166 30.4266 12.8312 28.0464 10.8249C29.9795 9.19553 32.487 8.21191 35.227 8.21191C41.3408 8.21191 46.2971 13.1092 46.2971 19.1503C46.2971 25.1914 41.3408 30.0887 35.227 30.0887C32.487 30.0887 29.9795 29.1051 28.0464 27.4757Z" fill="#F9A000"/>
<path fill-rule="evenodd" clip-rule="evenodd" d="M28.0464 27.4758C30.4266 25.4695 31.9359 22.4842 31.9359 19.1505C31.9359 15.8168 30.4266 12.8315 28.0464 10.8252C25.6662 12.8315 24.157 15.8168 24.157 19.1505C24.157 22.4842 25.6662 25.4695 28.0464 27.4758Z" fill="#FF5E00"/>
</svg>
