<svg width="56" height="40" viewBox="0 0 56 40" fill="none" xmlns="http://www.w3.org/2000/svg">
<rect x="0.816298" y="0.816298" width="53.8757" height="37.5497" rx="5.71409" fill="white"/>
<rect x="0.816298" y="0.816298" width="53.8757" height="37.5497" rx="5.71409" stroke="#F9F7F6" stroke-width="1.6326"/>
<path fill-rule="evenodd" clip-rule="evenodd" d="M23.8592 30.1187L24.2195 27.7529L23.4168 27.7335H19.5836L22.2475 10.2751C22.2558 10.2223 22.2826 10.1732 22.3218 10.1383C22.3612 10.1034 22.4114 10.0842 22.4639 10.0842H28.9273C31.0732 10.0842 32.554 10.5457 33.327 11.4566C33.6895 11.8839 33.9203 12.3305 34.0321 12.8219C34.1493 13.3376 34.1512 13.9536 34.0369 14.7051L34.0286 14.7598V15.2414L34.3911 15.4536C34.6963 15.621 34.9389 15.8125 35.1249 16.0318C35.4349 16.3972 35.6355 16.8617 35.7202 17.4121C35.8078 17.9782 35.7789 18.6521 35.6355 19.415C35.47 20.2924 35.2027 21.0566 34.8416 21.6818C34.5096 22.258 34.0865 22.736 33.5841 23.1062C33.1045 23.4581 32.5347 23.7253 31.8904 23.8962C31.266 24.0642 30.5542 24.149 29.7735 24.149H29.2705C28.9109 24.149 28.5615 24.2829 28.2873 24.5229C28.0122 24.7678 27.8304 25.1026 27.7746 25.4687L27.7366 25.6817L27.0999 29.8518L27.0711 30.0048C27.0634 30.0532 27.0503 30.0774 27.031 30.0937C27.0138 30.1087 26.9891 30.1187 26.9649 30.1187H23.8592Z" fill="#28356A"/>
<path fill-rule="evenodd" clip-rule="evenodd" d="M34.7347 14.8154C34.7156 14.9429 34.6934 15.0732 34.6687 15.207C33.8163 19.7304 30.9001 21.293 27.1757 21.293H25.2794C24.8238 21.293 24.4399 21.6348 24.3691 22.0992L23.1232 30.2675C23.0771 30.5725 23.3045 30.8472 23.6021 30.8472H26.9655C27.3637 30.8472 27.7021 30.5482 27.7648 30.1422L27.7978 29.9656L28.4311 25.812L28.4718 25.5841C28.5337 25.1768 28.8729 24.8775 29.2711 24.8775H29.774C33.0327 24.8775 35.5837 23.5102 36.3293 19.553C36.6407 17.9 36.4795 16.5197 35.6553 15.549C35.406 15.2563 35.0966 15.0133 34.7347 14.8154Z" fill="#298FC2"/>
<path fill-rule="evenodd" clip-rule="evenodd" d="M33.8426 14.448C33.7123 14.4087 33.578 14.3732 33.4402 14.3411C33.3016 14.3098 33.1597 14.2821 33.0136 14.2577C32.5023 14.1723 31.942 14.1318 31.3419 14.1318H26.2759C26.1511 14.1318 26.0326 14.161 25.9266 14.2136C25.6929 14.3297 25.5193 14.5584 25.4773 14.8382L24.3995 21.8936L24.3686 22.0992C24.4394 21.6348 24.8233 21.2931 25.2788 21.2931H27.1752C30.8996 21.2931 33.8158 19.7297 34.6681 15.2071C34.6936 15.0733 34.715 14.943 34.7341 14.8155C34.5186 14.6972 34.285 14.5961 34.0335 14.5099C33.9714 14.4885 33.9073 14.468 33.8426 14.448Z" fill="#22284F"/>
<path fill-rule="evenodd" clip-rule="evenodd" d="M25.4775 14.838C25.5196 14.5582 25.6931 14.3295 25.9268 14.2142C26.0336 14.1614 26.1513 14.1322 26.2762 14.1322H31.3422C31.9423 14.1322 32.5026 14.1729 33.0139 14.2583C33.16 14.2825 33.3019 14.3104 33.4404 14.3417C33.5782 14.3736 33.7126 14.4093 33.8429 14.4484C33.9075 14.4684 33.9716 14.4891 34.0343 14.5097C34.2858 14.5959 34.5196 14.6978 34.7352 14.8153C34.9888 13.1437 34.733 12.0056 33.8587 10.975C32.8946 9.84031 31.1548 9.35474 28.9284 9.35474H22.4648C22.01 9.35474 21.6221 9.69647 21.5518 10.1617L18.8597 27.7996C18.8066 28.1485 19.067 28.4633 19.4074 28.4633H23.3978L25.4775 14.838Z" fill="#28356A"/>
</svg>
