<svg width="58" height="40" viewBox="0 0 58 40" fill="none" xmlns="http://www.w3.org/2000/svg">
<rect x="0.5" y="0.5" width="57" height="39" rx="5.5" fill="white"/>
<rect x="0.5" y="0.5" width="57" height="39" rx="5.5" stroke="#F9F7F6"/>
<path fill-rule="evenodd" clip-rule="evenodd" d="M30.4469 13.5699L27.5683 14.2058V11.8034L30.4469 11.1792V13.5699ZM36.4332 14.9006C35.3093 14.9006 34.5868 15.4424 34.1854 15.8192L34.0363 15.0891H31.5133V28.8207L34.3803 28.1966L34.3918 24.8638C34.8047 25.17 35.4125 25.6057 36.4217 25.6057C38.4745 25.6057 40.3438 23.9098 40.3438 20.1766C40.3324 16.7614 38.4401 14.9006 36.4332 14.9006ZM35.745 23.0148C35.0684 23.0148 34.667 22.7675 34.3918 22.4613L34.3803 18.0921C34.6785 17.7506 35.0914 17.5151 35.745 17.5151C36.7887 17.5151 37.5111 18.7163 37.5111 20.259C37.5111 21.8371 36.8001 23.0148 35.745 23.0148ZM49.381 20.2944C49.381 17.2795 47.9589 14.9006 45.2409 14.9006C42.5115 14.9006 40.86 17.2795 40.86 20.2708C40.86 23.8156 42.8096 25.6057 45.6079 25.6057C46.9726 25.6057 48.0048 25.2877 48.7846 24.8402V22.4848C48.0048 22.8853 47.1102 23.1326 45.9749 23.1326C44.8625 23.1326 43.8762 22.7322 43.75 21.3425H49.358C49.358 21.2776 49.3621 21.1304 49.3669 20.9606L49.3669 20.9603C49.3734 20.7294 49.381 20.4572 49.381 20.2944ZM43.7156 19.1756C43.7156 17.8448 44.5069 17.2913 45.2294 17.2913C45.9289 17.2913 46.6744 17.8448 46.6744 19.1756H43.7156ZM27.5682 15.1009H30.4467V25.4055H27.5682V15.1009ZM24.3 15.1008L24.4835 15.9723C25.1601 14.7004 26.5019 14.9595 26.8689 15.1008V17.8095C26.5134 17.68 25.3665 17.5151 24.6899 18.4219V25.4055H21.8228V15.1008H24.3ZM18.7492 12.5453L15.9509 13.1577L15.9394 22.5908C15.9394 24.3338 17.2124 25.6174 18.9097 25.6174C19.8501 25.6174 20.5382 25.4408 20.9167 25.2288V22.8381C20.5497 22.9912 18.7377 23.533 18.7377 21.79V17.6093H20.9167V15.1008H18.7377L18.7492 12.5453ZM11.9715 17.4562C11.3637 17.4562 10.9967 17.6329 10.9967 18.0922C10.9967 18.5936 11.6283 18.8142 12.4119 19.0879C13.6893 19.534 15.3705 20.1213 15.3776 22.2964C15.3776 24.4045 13.7377 25.6175 11.3522 25.6175C10.366 25.6175 9.28795 25.4173 8.2214 24.9462V22.1434C9.18473 22.6851 10.4004 23.0855 11.3522 23.0855C11.9945 23.0855 12.4532 22.9088 12.4532 22.3671C12.4532 21.8116 11.7685 21.5577 10.942 21.2512C9.68318 20.7844 8.09525 20.1955 8.09525 18.2335C8.09525 16.149 9.64347 14.9007 11.9715 14.9007C12.9234 14.9007 13.8638 15.0538 14.8157 15.4424V18.2099C13.9441 17.7271 12.8431 17.4562 11.9715 17.4562Z" fill="#6461FC"/>
</svg>
