<svg width="56" height="40" viewBox="0 0 56 40" fill="none" xmlns="http://www.w3.org/2000/svg">
<rect x="0.816298" y="0.816298" width="53.8757" height="37.5497" rx="5.71409" fill="white"/>
<rect x="0.816298" y="0.816298" width="53.8757" height="37.5497" rx="5.71409" stroke="#F9F7F6" stroke-width="1.6326"/>
<path fill-rule="evenodd" clip-rule="evenodd" d="M17.5509 25.8901H14.1882L11.6665 15.9869C11.5469 15.5314 11.2927 15.1287 10.9189 14.9389C9.986 14.4619 8.958 14.0822 7.83655 13.8908V13.5095H13.2536C14.0013 13.5095 14.562 14.0822 14.6555 14.7474L15.9638 21.8909L19.3249 13.5095H22.5942L17.5509 25.8901ZM24.4634 25.8901H21.2875L23.9026 13.5095H27.0784L24.4634 25.8901ZM31.187 16.9394C31.2804 16.2726 31.8412 15.8914 32.4954 15.8914C33.5234 15.7956 34.6432 15.9871 35.5777 16.4624L36.1384 13.7969C35.2039 13.4156 34.1759 13.2241 33.243 13.2241C30.1606 13.2241 27.9177 14.939 27.9177 17.3191C27.9177 19.1297 29.5065 20.0804 30.6279 20.6531C31.8412 21.2242 32.3084 21.6055 32.215 22.1765C32.215 23.0332 31.2804 23.4144 30.3475 23.4144C29.2261 23.4144 28.1046 23.1289 27.0783 22.6519L26.5175 25.3191C27.639 25.7945 28.8523 25.9859 29.9737 25.9859C33.4299 26.08 35.5777 24.3668 35.5777 21.7953C35.5777 18.557 31.187 18.3671 31.187 16.9394ZM46.6923 25.8901L44.1706 13.5095H41.4621C40.9014 13.5095 40.3406 13.8908 40.1537 14.4619L35.4843 25.8901H38.7535L39.4061 24.0811H43.423L43.7968 25.8901H46.6923ZM41.9295 16.8437L42.8624 21.5097H40.2473L41.9295 16.8437Z" fill="#172B85"/>
</svg>
